<?xml version="1.0" encoding="UTF-8" standalone="no"?>
<svg
   xmlns:dc="http://purl.org/dc/elements/1.1/"
   xmlns:cc="http://creativecommons.org/ns#"
   xmlns:rdf="http://www.w3.org/1999/02/22-rdf-syntax-ns#"
   xmlns:svg="http://www.w3.org/2000/svg"
   xmlns="http://www.w3.org/2000/svg"
   xmlns:sodipodi="http://sodipodi.sourceforge.net/DTD/sodipodi-0.dtd"
   xmlns:inkscape="http://www.inkscape.org/namespaces/inkscape"
   version="1.0"
   id="Ebene_1"
   x="0px"
   y="0px"
   width="96.911px"
   height="96.913px"
   viewBox="0 0 96.911 96.913"
   enable-background="new 0 0 96.911 96.913"
   xml:space="preserve"
   sodipodi:docname="Logo_TU_Dresden_small.svg"
   inkscape:version="1.0.2 (e86c8708, 2021-01-15)"><metadata
   id="metadata2587"><rdf:RDF><cc:Work
       rdf:about=""><dc:format>image/svg+xml</dc:format><dc:type
         rdf:resource="http://purl.org/dc/dcmitype/StillImage" /></cc:Work></rdf:RDF></metadata><defs
   id="defs2585" /><sodipodi:namedview
   pagecolor="#ffffff"
   bordercolor="#666666"
   borderopacity="1"
   objecttolerance="10"
   gridtolerance="10"
   guidetolerance="10"
   inkscape:pageopacity="0"
   inkscape:pageshadow="2"
   inkscape:window-width="1440"
   inkscape:window-height="748"
   id="namedview2583"
   showgrid="false"
   inkscape:zoom="3.7717978"
   inkscape:cx="16.916038"
   inkscape:cy="47.294636"
   inkscape:window-x="0"
   inkscape:window-y="23"
   inkscape:window-maximized="0"
   inkscape:current-layer="Ebene_1" />

<ellipse
   style="fill:#8f8f8f;stroke-width:1.26079;fill-opacity:1"
   id="path3150"
   cx="48.29538"
   cy="48.29538"
   r="47.5"
   mask="none" />
<path
   fill-rule="evenodd"
   clip-rule="evenodd"
   fill="#FFFFFF"
   d="m -79.848452,37.499493 h 20.088 v 23.4 h 24.551999 v -23.4 h 20.016001 v 20.521 l -19.584001,19.584 h -25.487999 l -19.584,-19.584 z m 62.497,2.231 h -15.624001 v 23.399 h -29.016999 v -23.399 h -15.624 v 17.425 l 18.288,18.215 h 23.687999 l 18.216001,-18.215 z m -0.433,-6.696 -17.856001,-17.856 h -23.687999 l -17.855,17.856 h 21.888 v 23.4 h 15.623999 v -23.4 z m 2.592,2.232 h -22.248001 v 23.4 h -20.087999 v -23.4 h -22.32 v -2.736 l 19.584,-19.584 h 25.487999 l 19.584001,19.584 z m -69.119,-4.464 v 28.944 l 22.32,22.32 h 29.015999 l 22.248001,-22.32 v -28.944 L -32.975453,8.4824931 h -29.016999 z m 2.232,0.864 v 27.215 l 20.952,20.953 h 27.215999 l 20.952001,-20.953 v -27.215 l -20.953001,-20.952 h -27.215999 l -20.951,20.952"
   id="path2580"
   clip-path="none"
   style="fill:#1c1c1c;fill-opacity:1"
   mask="none" /></svg>
