<?xml version="1.0" encoding="UTF-8" standalone="no"?>
<svg
   xmlns:dc="http://purl.org/dc/elements/1.1/"
   xmlns:cc="http://creativecommons.org/ns#"
   xmlns:rdf="http://www.w3.org/1999/02/22-rdf-syntax-ns#"
   xmlns:svg="http://www.w3.org/2000/svg"
   xmlns="http://www.w3.org/2000/svg"
   xmlns:xlink="http://www.w3.org/1999/xlink"
   xmlns:sodipodi="http://sodipodi.sourceforge.net/DTD/sodipodi-0.dtd"
   xmlns:inkscape="http://www.inkscape.org/namespaces/inkscape"
   width="220mm"
   height="220mm"
   viewBox="0 0 220 220"
   version="1.1"
   id="svg3925"
   inkscape:version="1.0.2 (e86c8708, 2021-01-15)"
   sodipodi:docname="krillV2.svg">
  <defs
     id="defs3919">
    <linearGradient
       inkscape:collect="always"
       xlink:href="#linearGradient5213"
       id="linearGradient5455"
       gradientUnits="userSpaceOnUse"
       gradientTransform="translate(52.916667,40.065476)"
       x1="96.762024"
       y1="173.33099"
       x2="119.58073"
       y2="206.93262" />
    <linearGradient
       inkscape:collect="always"
       id="linearGradient5213">
      <stop
         style="stop-color:#ff5500;stop-opacity:0.63306451"
         offset="0"
         id="stop5209" />
      <stop
         style="stop-color:#ff6600;stop-opacity:0;"
         offset="1"
         id="stop5211" />
    </linearGradient>
    <linearGradient
       inkscape:collect="always"
       xlink:href="#linearGradient6675-7"
       id="linearGradient6677-2"
       x1="62.422966"
       y1="203.44569"
       x2="61.470581"
       y2="326.62186"
       gradientUnits="userSpaceOnUse"
       gradientTransform="matrix(0.55248619,0,0,0.55248619,100.14978,-82.069567)" />
    <linearGradient
       inkscape:collect="always"
       id="linearGradient6675-7">
      <stop
         style="stop-color:#ff5600;stop-opacity:0.63137257"
         offset="0"
         id="stop6671-8" />
      <stop
         style="stop-color:#f5f5f5;stop-opacity:1"
         offset="1"
         id="stop6673-5" />
    </linearGradient>
    <linearGradient
       inkscape:collect="always"
       xlink:href="#linearGradient7537"
       id="linearGradient7546"
       gradientUnits="userSpaceOnUse"
       gradientTransform="matrix(3.2408803,-1.9446139,1.9446139,3.2408803,-186.90427,510.37629)"
       x1="46.839088"
       y1="45.882805"
       x2="47.345665"
       y2="75.935432" />
    <linearGradient
       inkscape:collect="always"
       id="linearGradient7537">
      <stop
         style="stop-color:#ff5500;stop-opacity:1;"
         offset="0"
         id="stop7533" />
      <stop
         style="stop-color:#f5f5f5;stop-opacity:0.98387098"
         offset="1"
         id="stop7535" />
    </linearGradient>
    <linearGradient
       inkscape:collect="always"
       xlink:href="#linearGradient7537"
       id="linearGradient7634"
       gradientUnits="userSpaceOnUse"
       gradientTransform="matrix(0.47374747,-0.28426102,0.28426102,0.47374747,240.08517,16.541214)"
       x1="46.839088"
       y1="45.882805"
       x2="47.345665"
       y2="75.935432" />
  </defs>
  <sodipodi:namedview
     id="base"
     pagecolor="#ffffff"
     bordercolor="#666666"
     borderopacity="1.0"
     inkscape:pageopacity="0.0"
     inkscape:pageshadow="2"
     inkscape:zoom="0.22489728"
     inkscape:cx="458.00739"
     inkscape:cy="117.93003"
     inkscape:document-units="mm"
     inkscape:current-layer="g4478"
     showgrid="false"
     inkscape:window-width="1440"
     inkscape:window-height="855"
     inkscape:window-x="0"
     inkscape:window-y="23"
     inkscape:window-maximized="1"
     inkscape:document-rotation="0" />
  <metadata
     id="metadata3922">
    <rdf:RDF>
      <cc:Work
         rdf:about="">
        <dc:format>image/svg+xml</dc:format>
        <dc:type
           rdf:resource="http://purl.org/dc/dcmitype/StillImage" />
        <dc:title />
      </cc:Work>
    </rdf:RDF>
  </metadata>
  <g
     inkscape:label="Layer 1"
     inkscape:groupmode="layer"
     id="layer1"
     transform="translate(0,-77)">
    <g
       transform="matrix(1.81,-1.3811727e-8,1.3811727e-8,1.81,-134.3078,82.860113)"
       id="g4478">
      <g
         aria-label="KRILL"
         transform="matrix(0.24836769,-0.00186956,0.00186956,0.24836769,-85.834426,51.419729)"
         style="font-style:normal;font-weight:normal;font-size:40px;line-height:1.25;font-family:sans-serif;letter-spacing:0px;word-spacing:0px;fill:#f5f5f5;fill-opacity:1;stroke:#f5f5f5;stroke-opacity:1"
         id="flowRoot12058">
        <path
           d="m 858.78125,133.66992 h 6.3125 v 19.71875 l 20.9375,-19.71875 h 8.125 L 871,155.41992 895.8125,180.32617 H 887.5 l -22.40625,-22.46875 v 22.46875 h -6.3125 z"
           style="font-style:normal;font-variant:normal;font-weight:normal;font-stretch:normal;font-size:64px;font-family:Damascus;-inkscape-font-specification:Damascus;fill:#f5f5f5;fill-opacity:1;stroke:#f5f5f5;stroke-opacity:1"
           id="path821"
           inkscape:connector-curvature="0" />
        <path
           d="m 922.90625,158.45117 q 2.03125,0.6875 3.9375,2.9375 1.9375,2.25 3.875,6.1875 l 6.40625,12.75 h -6.78125 L 924.375,168.35742 q -2.3125,-4.6875 -4.5,-6.21875 -2.15625,-1.53125 -5.90625,-1.53125 h -6.875 v 19.71875 h -6.3125 v -46.65625 h 14.25 q 8,0 11.9375,3.34375 3.9375,3.34375 3.9375,10.09375 0,4.40625 -2.0625,7.3125 -2.03125,2.90625 -5.9375,4.03125 z m -15.8125,-19.59375 v 16.5625 h 7.9375 q 4.5625,0 6.875,-2.09375 2.34375,-2.125 2.34375,-6.21875 0,-4.09375 -2.34375,-6.15625 -2.3125,-2.09375 -6.875,-2.09375 z"
           style="font-style:normal;font-variant:normal;font-weight:normal;font-stretch:normal;font-size:64px;font-family:Damascus;-inkscape-font-specification:Damascus;fill:#f5f5f5;fill-opacity:1;stroke:#f5f5f5;stroke-opacity:1"
           id="path823"
           inkscape:connector-curvature="0" />
        <path
           d="m 945.28125,133.66992 h 6.3125 v 46.65625 h -6.3125 z"
           style="font-style:normal;font-variant:normal;font-weight:normal;font-stretch:normal;font-size:64px;font-family:Damascus;-inkscape-font-specification:Damascus;fill:#f5f5f5;fill-opacity:1;stroke:#f5f5f5;stroke-opacity:1"
           id="path825"
           inkscape:connector-curvature="0" />
        <path
           d="m 964.15625,133.66992 h 6.3125 v 41.34375 h 22.71875 v 5.3125 h -29.03125 z"
           style="font-style:normal;font-variant:normal;font-weight:normal;font-stretch:normal;font-size:64px;font-family:Damascus;-inkscape-font-specification:Damascus;fill:#f5f5f5;fill-opacity:1;stroke:#f5f5f5;stroke-opacity:1"
           id="path827"
           inkscape:connector-curvature="0" />
        <path
           d="m 999.78125,133.66992 h 6.31245 v 41.34375 h 22.7188 v 5.3125 h -29.03125 z"
           style="font-style:normal;font-variant:normal;font-weight:normal;font-stretch:normal;font-size:64px;font-family:Damascus;-inkscape-font-specification:Damascus;fill:#f5f5f5;fill-opacity:1;stroke:#f5f5f5;stroke-opacity:1"
           id="path829"
           inkscape:connector-curvature="0" />
      </g>
      <g
         id="g5459"
         transform="matrix(0.55151268,0.03278348,-0.03278348,0.55151268,105.21216,-211.2992)">
        <path
           inkscape:connector-curvature="0"
           id="path1173"
           d="m 173.27314,196.39857 c -1.82204,1.64015 -4.33552,2.38745 -6.76146,2.27205 -1.51398,-1.22842 -1.18173,-3.45651 -0.5223,-5.04984 0.32383,-1.44172 1.3863,-2.60072 2.80594,-3.01914 2.03038,-0.80756 4.85732,-0.1873 5.68602,2.02317 0.53503,1.33382 0.14622,3.09325 -1.2082,3.77376 z"
           style="fill:#ff5600;fill-opacity:0.631373;stroke:none;stroke-width:1.41836px;stroke-linecap:butt;stroke-linejoin:miter;stroke-opacity:1" />
        <path
           id="rect5068"
           style="fill:url(#linearGradient5455);fill-opacity:1;stroke:none;stroke-width:1.42001;stroke-opacity:1"
           d="m 236.34681,126.67311 c -6.32216,7.88894 -16.9781,24.7629 -23.33759,33.87959 -3.88036,3.06773 -10.07913,10.66371 -14.41514,15.97886 -2.54239,1.76711 -7.17978,5.80783 -8.55555,7.1453 -0.68222,0.23588 -1.32788,0.52059 -1.94614,0.84181 1.53557,-2.92321 3.31972,-6.80965 4.63745,-9.75909 3.16171,-5.84604 7.62465,-15.58035 10.23813,-20.77083 0.94878,-1.5482 2.224,-3.83201 1.73633,-3.175 3.33116,-6.49123 7.37515,-13.74258 9.70587,-20.10936 -3.08005,5.80119 -14.66608,28.0537 -10.88409,21.36148 -0.0763,0.15185 -0.1247,0.25269 -0.19431,0.39223 -2.40261,3.87342 -7.2298,13.65834 -10.42623,20.32795 -2.25481,3.88248 -5.28804,9.42486 -6.7443,12.91136 -4.50979,3.15931 -7.65954,8.17906 -12.8881,10.70116 -6.61354,-2.5001 -7.49314,1.58419 -10.8014,5.94227 -17.56478,9.26713 -30.54067,25.16496 -48.42289,33.94315 -12.1599,5.00839 -21.586207,14.39877 -31.620807,22.58777 -5.34267,3.7675 -9.393388,8.70548 -14.862658,13.42967 -6.3325,6.70138 7.548919,-2.42731 3.912939,0.76842 -4.94448,3.73299 -0.954115,4.36321 1.157036,0.88574 5.888329,-6.35 13.130679,-11.3616 20.5543,-15.72772 0.66589,3.45322 6.009825,13.93228 13.52166,15.76389 0.51051,-1.46479 -3.95942,-5.42567 -4.89376,-7.13548 -7.976493,-1.87356 -2.516565,-18.22327 2.22828,-10.90166 5.4248,3.33184 9.7961,9.94406 13.27155,13.59555 5.26451,4.0309 -0.21615,-4.59685 -2.13321,-7.42693 -1.53189,-4.72619 -8.71238,-4.64429 -7.98349,-8.42739 2.14527,-5.71081 7.23035,-6.82328 7.88738,0.0269 4.44411,5.39141 7.38754,13.08767 11.81684,17.61339 h 5.3e-4 c 7.43205,2.88408 -3.074,-8.81477 -3.76359,-10.63346 -0.9809,-6.01376 -12.61833,-11.22971 -4.71599,-12.21062 3.03058,-8.69445 8.68981,0.1777 14.12368,2.28306 6.28493,1.68849 10.59986,12.1874 14.02705,8.58552 -3.69346,-7.30434 -10.61824,-11.57827 -18.25367,-14.19396 0.93441,-9.36009 8.77538,0.3656 13.76298,0.108 5.13419,-1.78243 8.85792,14.65471 7.7003,4.05609 3.05353,6.29549 3.19079,0.45684 0.24495,-2.55954 -0.32463,-7.96415 -15.89689,-1.85248 -11.20087,-9.15499 2.50928,3.41263 7.48051,2.73757 10.29498,-0.3235 2.43902,-2.93056 13.56127,-11.02054 11.94243,-6.50968 -0.60866,2.47964 -3.25822,4.79491 2.72076,2.84737 5.413,-3.09778 11.64303,-6.73324 14.86266,-12.01735 0.92828,5.48307 1.74625,-0.79018 3.57136,-4.84725 4.40197,1.2471 -2.28942,-13.42799 -5.0028,-7.03575 -5.50797,1.80077 2.48677,-6.13212 6.24148,-2.39778 -1.75712,-4.61139 -13.82474,-2.15652 -5.38107,-7.42022 7.68493,-4.22502 16.41829,-5.34549 25.44238,-5.37848 3.21372,-1.39505 12.89947,-0.95188 10.09551,-2.33164 -8.40858,1.92473 -17.0682,0.97982 -25.60051,2.92126 -6.4139,1.48955 -1.59406,-1.06227 1.80248,-2.08256 6.96767,-3.02435 41.51978,-12.31023 21.63692,-7.62537 -6.82205,2.4282 -14.24995,3.67997 -21.14548,6.21771 -9.6709,3.02003 11.19993,-6.9615 14.18621,-8.39329 0.006,-0.004 0.009,-0.007 0.015,-0.0109 4.44634,-2.22915 7.06735,-3.71188 13.06225,-6.65282 3.73153,-1.83046 -7.75535,2.77063 -11.6551,5.03484 -3.82527,1.37705 -22.22244,11.27538 -17.41858,6.40167 -2.76035,0.31617 -8.70477,6.52573 -3.1905,0.4408 0.002,-5.3e-4 0.003,-0.001 0.005,-0.002 0.0863,0.0453 0.20287,0.003 0.3421,-0.10697 4.58446,-1.4602 7.57184,-5.18607 10.91096,-8.71212 6.04126,-4.9646 14.3905,-15.2147 18.93372,-20.42563 -0.0846,0.006 -0.17511,0.0239 -0.26871,0.0465 3.19357,-4.13021 7.17458,-11.65424 8.86147,-12.77648 3.41107,-6.69461 10.39737,-13.77109 12.25197,-19.80396 z m -55.63123,64.27411 c 0.14728,-0.0206 0.3143,0.0997 0.48576,0.4563 -1.38792,2.36968 -1.12396,-0.36691 -0.48576,-0.4563 z m 1.53789,2.37763 c 0.10173,0.006 0.21619,0.0368 0.34365,0.10129 -1.12205,2.1788 -1.32701,-0.15605 -0.34365,-0.10129 z m -5.91075,4.31602 c 0.13329,0.015 0.10066,0.27996 -0.21704,0.94103 -4.92381,4.72466 -0.42515,-1.01328 0.21704,-0.94103 z m -3.68608,0.12712 c 0.0872,0.0271 0.15562,0.2883 0.17622,0.92966 -1.2849,3.23012 -0.55426,-1.04697 -0.17622,-0.92966 z m -7.66103,5.4529 c 0.43166,-0.0389 0.485,0.58132 -0.35191,2.40812 l 0.0977,0.95085 c -5.7383,2.80557 -1.04073,-3.2424 0.25425,-3.35897 z m 5.14594,1.1312 c 0.12388,0.0148 0.16012,0.22655 0.0279,0.75912 -2.74724,2.80485 -0.56472,-0.82349 -0.0279,-0.75912 z m -9.5529,0.0294 c 0.12464,0.012 0.29817,0.1087 0.53175,0.33435 -0.45008,2.01222 -1.20482,-0.39908 -0.53175,-0.33435 z m 12.47624,0.0341 c -0.33209,4.08927 -3.21042,1.42194 0,0 z m 4.57129,0.68471 c 0.21626,0.006 0.47824,0.0208 0.79169,0.0439 2.97991,1.48579 -4.03545,-0.14 -0.79169,-0.0439 z m -19.33887,1.39837 c -5.54481,3.44115 5.2274,2.08275 -0.0522,4.07055 -4.36136,5.15188 -9.6804,12.22557 -16.55765,12.38426 2.65393,4.45104 -4.46406,5.44647 -5.33559,2.83548 2.69983,-6.06338 13.002,-8.2714 18.00252,-14.32057 -3.35624,-0.98404 -9.29145,6.8318 -12.30467,6.5319 5.24445,-4.01966 10.45391,-8.54143 16.24758,-11.50162 z m 23.05493,0.73845 c -0.86253,0.0513 1.59082,3.926 3.19412,6.057 0.75067,-0.82279 0.79587,-3.22336 -0.40877,-4.02715 -1.60246,-1.48422 -2.44784,-2.04992 -2.78535,-2.02985 z m -14.03326,1.09399 c 0.14994,-0.006 0.16117,0.37804 -0.11627,1.44953 -2.72692,3.57111 -0.4192,-1.4275 0.11627,-1.44953 z m 10.66499,0.56224 c 0.23868,0.0155 0.91135,0.29145 2.28048,1.06299 -0.6674,0.55895 -2.89046,-1.10265 -2.28048,-1.06299 z m -14.63167,1.78129 c 0.15663,-0.0216 0.41814,0.099 0.82166,0.4408 0.54713,3.94673 -1.66746,-0.32394 -0.82166,-0.4408 z m 14.4756,0.68161 c -0.92476,3.64412 3.35131,-2.40664 4.42144,1.74046 -3.74093,-0.15557 -2.82841,4.25407 -1.72599,4.61109 -1.35272,3.00823 -6.86429,2.04098 -3.4954,-1.83865 0.58097,4.16581 2.90032,-2.2624 -0.1111,-1.31309 -4.15591,-3.55836 -1.46509,-1.09139 0.91105,-3.19981 z m -3.69951,3.4153 c 0.60569,0.0442 1.07534,0.92366 0.59686,3.23391 l 0.0977,1.49448 c -3.50299,-1.85427 -1.85086,-4.81287 -0.69453,-4.72839 z m -3.66438,4.44314 c 0.46596,-0.0191 1.08775,0.0753 1.87689,0.35088 l -0.15038,0.74311 c -2.84349,1.19875 -3.74568,-1.01135 -1.72651,-1.09399 z m 6.35362,0.74 c 1.85739,3.59278 -4.73789,1.41576 0,0 z m -8.66717,1.32705 c -1.19291,4.31622 -6.04556,3.11649 0,0 z m 5.52318,0.16227 c 0.22737,1.6e-4 0.32789,0.42031 0.19998,1.50171 l -0.91157,0.63872 c -4.42043,7.59878 -0.38392,-2.14121 0.71159,-2.14043 z m -3.88452,1.52342 c 0.98439,2.97975 -1.29446,0.461 0,0 z m 3.42873,0.84232 c 0.20089,-0.0156 0.52689,0.10354 1.01389,0.46406 -0.85178,1.36578 -1.73136,-0.40837 -1.01389,-0.46406 z m -10.02833,0.44959 c 0.18056,0.0164 0.41066,0.13019 0.69505,0.39067 -1.19809,2.26485 -1.67008,-0.47928 -0.69505,-0.39067 z m -9.60148,0.8785 c 0.10172,0.006 0.21619,0.0368 0.34365,0.10128 -1.122,2.17881 -1.32698,-0.15597 -0.34365,-0.10128 z m 7.76645,0.51883 c 0.27371,-0.0429 0.0745,0.37716 -1.20664,1.72082 -3.28159,1.52296 0.50716,-1.6112 1.20664,-1.72082 z m 2.60501,0.48783 c -1.10546,1.59807 -2.04416,0.0711 0,0 z m -16.28169,0.83199 c 0.12666,-0.003 0.0406,0.2096 -0.42013,0.77773 -4.66945,3.29684 -0.12874,-0.76425 0.42013,-0.77773 z m -13.41107,0.73638 c 1.23509,-0.047 1.51928,0.80695 -0.74311,3.23082 -1.22996,1.22259 -2.64099,2.29197 -4.21938,3.02513 -5.07355,-1.69021 2.24528,-6.1526 4.96249,-6.25595 z m 32.74942,0.0873 c 0.28395,0.0432 0.59895,0.38283 0.91002,1.20251 -2.78743,3.99042 -2.14049,-1.38957 -0.91002,-1.20251 z m -18.91667,1.74149 c -1.10269,1.37446 -4.36664,1.0837 0,0 z m -4.91908,0.33538 c 0.23107,-0.0353 0.2307,0.22252 -0.24443,1.00614 -4.35793,2.98643 -0.58085,-0.87989 0.24443,-1.00614 z m 21.69428,0.37156 c -1.1054,1.59802 -2.04421,0.0711 0,0 z m -40.27196,3.42356 c 0.95898,0.001 1.13631,0.81207 -0.74053,2.9223 -0.54588,1.55533 -7.70682,3.22209 -4.50204,0.73226 0.76932,-1.9288 3.84099,-3.6563 5.24257,-3.65456 z m 18.64227,2.28617 c 1.02205,-0.0115 1.95446,0.16875 1.55701,0.61805 0.23702,1.07994 -1.09264,1.68293 -1.66915,0.68264 -3.54325,-0.72909 -1.59126,-1.28144 0.11214,-1.30069 z m -27.50116,2.1487 c 0.74575,-0.0312 1.37927,0.33735 1.69343,1.36478 -0.968,0.73323 -2.08906,1.21301 -3.16673,1.75338 -6.10702,3.27291 -1.45234,-2.99593 1.4733,-3.11816 z m 12.00857,0.84905 c 0.33538,0.0123 0.70853,0.0923 1.11259,0.26768 -3.94297,2.88156 -3.4603,-0.35369 -1.11259,-0.26768 z m -18.89962,3.11247 c 0.48644,0.006 0.66095,0.3608 0.26768,1.26142 -0.98678,0.93556 -2.1889,1.57658 -3.39411,2.17351 -6.950886,3.05052 1.01851,-3.46192 3.12643,-3.43493 z m 10.61795,0.47645 c -3.46094,3.53249 -3.87495,0.0735 0,0 z m -9.91102,4.0504 c 0.22536,5.3e-4 0.46707,0.0645 0.71779,0.21756 l -0.30231,0.56017 c -2.75637,2.3397 -1.993,-0.78105 -0.41548,-0.77773 z m -10.144599,1.3255 c 0.881279,-0.0815 -0.726657,3.15457 -3.044775,4.14704 -4.065471,3.10197 -1.961801,-0.8099 0.760158,-2.19418 1.213671,-1.38119 1.939767,-1.92096 2.284617,-1.95286 z m 0.771529,3.24425 c 0.24304,-0.009 0.55755,0.009 0.95705,0.0599 1.03057,2.51985 -3.30643,0.0237 -0.95705,-0.0599 z m -8.51731,3.46129 c 0.297797,-0.0252 0.26987,0.27012 -0.291457,1.05213 -1.102558,1.05436 -2.293575,2.01227 -3.493325,2.95279 -6.648651,3.67133 2.349936,-3.88346 3.784782,-4.00492 z m 27.0738,1.61282 c 0.16562,0.004 0.54966,0.16043 1.26142,0.56586 1.40492,2.24718 -1.97912,-0.58467 -1.26142,-0.56586 z m -36.965703,4.38371 c 0.181634,0.024 0.372597,0.18784 0.556554,0.56327 -2.238417,3.25661 -1.537385,-0.69285 -0.556554,-0.56327 z m 45.599283,9.1643 c 0.0975,-0.0206 0.35492,0.087 0.85628,0.40979 1.29718,2.17534 -1.27892,-0.32074 -0.85628,-0.40979 z" />
      </g>
      <circle
         style="fill:none;fill-opacity:1;stroke:url(#linearGradient6677-2);stroke-width:1.38122;stroke-linecap:round;stroke-miterlimit:4;stroke-dasharray:none;stroke-dashoffset:0;stroke-opacity:1"
         id="path12056-4"
         cx="135.23265"
         cy="57.426624"
         r="58.897953" />
      <g
         id="g7551"
         transform="matrix(0.55248619,0,0,0.55248619,238.73508,-130.75097)">
        <path
           id="rect7531"
           style="fill:url(#linearGradient7546);fill-opacity:1;stroke:none;stroke-width:3.8778;stroke-opacity:1"
           d="m 395.29297,293.67383 c -25.62195,28.34604 -69.60838,89.62004 -95.64649,122.58984 -15.3281,10.70389 -40.41948,37.97179 -57.9707,57.05274 -9.98842,6.09687 -28.3903,20.3015 -33.88086,25.03906 -2.62681,0.73693 -5.1266,1.667 -7.53125,2.74023 6.44909,-10.68449 14.05247,-24.94893 19.68555,-35.78125 13.23983,-21.34726 32.26076,-57.07151 43.28516,-76.06836 3.92681,-5.62836 9.24899,-13.95926 7.26171,-11.58984 14.02383,-23.74345 30.90756,-50.19505 41.12891,-73.69336 -12.92164,21.19635 -61.62333,102.555 -45.85352,78.1543 -0.32201,0.55581 -0.52833,0.9247 -0.82226,1.43554 -9.93343,14.07508 -30.33903,49.90877 -43.89453,74.35547 -9.37784,14.14239 -22.06559,34.37365 -28.3418,47.20118 -17.72338,10.90824 -30.73307,29.1414 -51.02539,37.48437 -24.39129,-10.91577 -28.62498,4.2956 -42.083984,19.99609 -68.347935,31.02441 -120.870708,88.09461 -190.306641,117.20313 -47.000925,16.16889 -84.671415,49.48334 -124.367185,78.12891 -21.00213,13.01608 -37.39161,30.73878 -59.08594,47.33593 -25.3946,23.86326 29.02462,-7.46624 14.58984,3.77539 -19.49206,12.97516 -4.57702,16.24813 4.16797,3.60157 23.64,-22.63714 52.08865,-39.92063 81.07617,-54.72852 1.73787,13.17789 19.54813,53.91271 47.47852,62.50781 2.25459,-5.41198 -13.71964,-21.35909 -16.86133,-28.01953 -29.67407,-8.85759 -5.40809,-69.31845 10.85156,-40.63086 19.71983,13.78723 34.727993,39.71547 47.021489,54.27149 18.958291,16.38871 0.215301,-17.39254 -6.382813,-28.5 -4.719677,-18.17484 -31.828906,-19.47628 -28.230466,-33.58594 9.37458,-21.06501 28.809352,-24.1211 29.751951,1.87109 15.557907,21.33774 24.938584,51.03522 40.634765,69.10352 h 0.002 c 27.393331,12.54803 -9.622553,-33.94654 -11.816406,-40.96289 -2.352098,-22.90908 -45.0872,-45.19838 -15.052734,-47.12696 13.383881,-32.12333 32.744331,2.61934 52.773437,11.78125 23.33352959,7.77997 37.259918,48.35791 50.998047,35.53711 -12.296795,-28.38663 -37.4647,-46.06345 -65.685547,-57.64453 5.624593,-35.10482 33.0250636,3.34746 51.900391,3.49414 19.770365,-5.5734 30.133172,57.27609 28.142578,17.0293 10.108675,24.43684 11.935828,2.43952 1.498047,-9.60156 0.561335,-30.12049 -59.560273,-10.55451 -40.2050782,-37.05274 8.7018332,13.43819 27.6089312,12.0057 38.9140622,1.08789 9.859336,-10.50962 53.636897,-38.53667 46.517578,-21.88086 -2.852504,9.21884 -13.369676,17.3604 9.625,11.35352 21.117289,-10.47356 45.439209,-22.7936 58.771489,-42.00781 2.27259,20.89512 6.76478,-2.58883 14.56055,-17.48633 16.32835,5.69238 -5.62608,-51.17652 -17.29688,-27.66797 -21.1847,5.55882 10.75743,-22.57773 24.08594,-7.64648 -5.59518,-17.79224 -51.67602,-11.23561 -18.63867,-29.20118 29.94175,-14.21695 63.14319,-16.48725 97.19726,-14.58789 12.43782,-4.54261 48.88283,-0.69675 38.61328,-6.53125 -32.1561,5.37597 -64.61744,-0.13192 -97.24414,5.2793 -24.53287,4.18144 -5.77595,-4.36544 7.26758,-7.45312 26.96636,-9.84783 159.4098,-37.13227 83.34375,-23.91602 -26.28329,7.63128 -54.58878,10.68675 -81.17383,18.71484 -37.16432,9.2253 43.81833,-23.75214 55.40625,-28.48437 0.0227,-0.0151 0.0336,-0.022 0.0586,-0.0371 17.27539,-7.41309 27.49593,-12.42058 50.77343,-22.17188 14.48909,-6.0692 -29.88049,8.71484 -45.10156,16.38282 -14.74106,4.33753 -86.37164,37.55659 -67.1543,20.24609 -10.48531,0.57381 -34.30599,22.66821 -12.13671,0.94727 0.008,-0.002 0.012,-0.003 0.0195,-0.008 0.31559,0.19011 0.76449,0.0575 1.31445,-0.32617 17.62405,-4.48101 29.73028,-17.86937 43.11914,-30.42383 23.90627,-17.37588 57.70601,-54.17517 76.01563,-72.8164 -0.32051,0.004 -0.66526,0.051 -1.02344,0.11523 12.97519,-14.86651 29.68273,-42.36107 36.29883,-46.2168 14.37003,-24.49141 42.31202,-49.62251 50.66406,-71.96679 z M 170.99023,523.69531 c 0.56028,-0.0446 1.16354,0.44624 1.73047,1.83008 -5.7679,8.62923 -4.15836,-1.63596 -1.73047,-1.83008 z m 4.9336,9.30078 c 0.10783,-0.004 0.22038,3.3e-4 0.33594,0.0137 0.38245,0.0453 0.807,0.18723 1.27343,0.45898 -4.57443,7.71966 -4.95213,-0.34916 -1.60937,-0.47266 z m -37.00586,14.62305 c 0.0479,-0.0144 0.093,-0.0145 0.13672,0.002 0.32277,0.1217 0.52317,1.1225 0.45703,3.54688 -5.39803,11.5268 -2.07922,-3.10264 -0.59375,-3.54883 z m 14.07226,0.34961 c 0.49951,0.0865 0.31773,1.07909 -1.02929,3.50195 -19.6365,16.72128 -1.3774,-3.91857 1.02929,-3.50195 z m -44.0625,18.50781 c 1.63733,-0.0499 1.70006,2.30128 -1.86718,9.00586 l 0.15429,3.60938 c -22.279049,9.29813 -3.19904,-12.46583 1.71289,-12.61524 z m -17.109371,3.38086 c 0.06962,-0.006 0.143754,-0.003 0.222657,0.01 0.467557,0.0733 1.100979,0.47713 1.93164,1.38086 -2.082204,7.25682 -4.31246,-1.21346 -2.154297,-1.39063 z m 36.271481,2.04102 c 0.46409,0.0835 0.55193,0.89141 -0.0664,2.87109 -10.99401,9.9662 -1.94453,-3.23434 0.0664,-2.87109 z m 11.01368,0.89453 c -2.17002,15.3538 -12.43136,4.64481 0,0 z m 15.23437,3.50195 c 0.48256,0.005 1.09583,0.0393 1.85938,0.10742 0.81456,0.0711 1.79912,0.18615 2.97656,0.34375 10.22775,5.88186 -12.07435,-0.52558 -4.83594,-0.45117 z m -71.416015,1.04492 c -21.691582,11.73948 19.253705,9.03203 -1.111328,15.34766 -17.610248,18.45925 -39.263549,43.9534 -65.246094,43.00977 9.014695,17.38839 -18.0649778,19.54831 -20.767578,9.50195 11.5459351,-22.27083 50.909864,-28.29094 71.132813,-49.99219 -12.44196,-4.46536 -36.58745,23.69202 -47.888672,21.88477 20.688107,-13.98947 41.358223,-29.88289 63.880859,-39.75196 z m 86.816405,7.95704 c -3.26574,7e-5 5.12222,15.16877 10.69336,23.56835 3.01671,-2.93593 3.726,-11.98241 -0.63867,-15.28515 -5.71298,-5.95918 -8.77683,-8.28324 -10.05469,-8.2832 z m -53.1914,0.98046 c 0.56704,0.0113 0.52337,1.46299 -0.76368,5.44336 -11.08919,12.86177 -1.26151,-5.48032 0.76368,-5.44336 z m 40.11132,4.51368 c 0.89704,0.11187 3.37466,1.30351 8.36719,4.52148 -2.64336,1.95916 -10.65966,-4.8079 -8.36719,-4.52148 z m -55.60156,3.43945 c 0.59579,-0.0465 1.55423,0.46756 3,1.84765 1.17912,15.0132 -6.2173,-1.59646 -3,-1.84765 z m 54.46094,5.81641 c -4.30628,13.5414 13.18364,-8.32786 16.29101,7.55859 -14.07915,-1.4259 -11.62412,15.41552 -7.54492,17.00976 -5.77829,11.04628 -26.35584,6.16109 -12.77539,-7.7207 1.25764,15.84733 11.44962,-7.88474 -0.125,-4.97851 -14.88166,-14.35726 -5.28345,-4.44725 4.1543,-11.86914 z m -15.13672,12.03515 c 0.14005,-0.004 0.27832,0.003 0.41406,0.0215 2.27528,0.30274 3.84874,3.72696 1.52539,12.33593 l 0.0352,5.66016 c -12.40045,-7.53835 -6.31613,-17.90275 -1.97461,-18.01758 z m -14.4082,15.96289 c 1.76228,0.034 4.08642,0.52744 7.00195,1.74414 l -0.73438,2.77149 c -10.99695,3.88501 -13.90418,-4.65668 -6.26757,-4.51563 z m 23.80468,4.2168 c 6.20194,13.97166 -18.19294,4.27892 0,0 z m -32.99804,3.0625 c -5.4687,16.01699 -23.508041,10.40228 0,0 z m 20.80273,1.85156 c 0.8578,0.0514 1.14307,1.65963 0.41797,5.71094 l -3.58203,2.20508 c -18.38188,27.67782 -0.969,-8.16464 3.16406,-7.91602 z m -14.99805,4.87695 c 3.0457,11.46301 -4.98723,1.449 0,0 z m -25.517574,3.37305 c 0.104945,-0.003 0.213788,0.004 0.328125,0.0215 0.677552,0.10242 1.520607,0.58235 2.535157,1.6289 -4.871044,8.01763 -6.116556,-1.54749 -2.863282,-1.65039 z M 135.33203,646 c 0.76142,-0.0151 1.96417,0.50911 3.7207,1.97852 -3.51995,4.96187 -6.44011,-1.92931 -3.7207,-1.97852 z m -74.693358,0.59375 c 0.107827,-0.004 0.218431,3.3e-4 0.333984,0.0137 0.382432,0.0454 0.808959,0.18728 1.275391,0.45899 -4.574245,7.71973 -4.952028,-0.3489 -1.609375,-0.47266 z m 29.519531,3.71289 c 1.042292,-0.10053 0.197419,1.44053 -4.9375,6.22266 -12.722562,5.00995 2.273867,-5.96595 4.9375,-6.22266 z M -12.5,651.99023 c 4.6703698,0.0998 5.5500052,3.38391 -3.529297,12.02149 -4.914663,4.33682 -10.478174,8.05665 -16.597656,10.46875 -18.762768,-7.51476 9.852099,-22.70967 20.126953,-22.49024 z m 50.761719,0.22852 c 0.478545,0.0189 0.10592,0.79969 -1.759766,2.83984 -18.356598,11.39131 -0.314059,-2.91207 1.759766,-2.83984 z m 61.615234,0.51367 c -4.529151,5.78139 -7.728291,-0.19011 0,0 z m 10.734377,6.90039 c 0.14147,-0.009 0.28397,5.7e-4 0.42773,0.0312 1.06162,0.22677 2.17424,1.57791 3.16406,4.74024 -11.05493,13.97921 -7.97743,-4.49562 -3.59179,-4.77149 z m -71.333986,2.35938 c -4.468556,4.93837 -16.717801,3.10934 0,0 z m -18.632813,0.16211 c 0.879712,-0.0813 0.819907,0.89032 -1.148437,3.74023 -17.1116602,10.29007 -1.993552,-3.44898 1.148437,-3.74023 z m 81.765629,6.26758 c -4.528917,5.7812 -7.728484,-0.19012 0,0 z m -152.708988,3.88476 c 3.617881,0.21884 4.105108,3.31865 -3.449219,10.85938 -2.408349,5.74563 -29.799993,10.42702 -17.150391,1.75195 3.335116,-7.10457 15.312024,-12.93225 20.59961,-12.61133 z m 67.404297,12.78125 c 0.794441,-0.0223 1.614091,-0.0133 2.417969,0.0254 3.858636,0.18595 7.336621,1.07365 5.736328,2.67969 0.652047,4.12762 -4.500411,6.10444 -6.451172,2.20117 -11.5541143,-3.10221 -7.264215,-4.74996 -1.703125,-4.90625 z m -101.822266,1.96289 c 2.820612,0.0495 5.129121,1.58249 6.083985,5.5293 -3.816579,2.54929 -8.154701,4.1092 -12.341797,5.90625 -23.774991,10.97862 -4.807654,-11.6305 6.257812,-11.43555 z m 44.306641,5.85352 c 0.263549,0.002 0.534349,0.0164 0.810547,0.043 1.262585,0.1217 2.651583,0.50745 4.136718,1.25976 -15.037472,9.67537 -13.117295,-1.37626 -4.947265,-1.30273 z m -71.193364,7.54882 c 1.83393,0.13191 2.4123,1.50867 0.72657,4.81836 -3.93281,3.30845 -8.612,5.45762 -13.29297,7.43946 -26.90892,9.95036 4.61955,-12.83238 12.5664,-12.25782 z m 38.625004,4.16211 c 0.42733,-0.007 0.870745,-0.003 1.328125,0.0156 -13.417091,12.1592 -14.575357,0.20544 -1.328125,-0.0156 z m -37.523434,13.07422 c 0.18097,-0.011 0.36481,-0.0114 0.55078,0 0.85013,0.0525 1.74659,0.34871 2.6582,0.98243 l -1.26562,2.04492 c -10.58277,7.95267 -7.55339,-2.68757 -1.94336,-3.02735 z m -38.02149,2.72657 c 3.34323,-0.10999 -3.44943,11.73831 -12.41797,14.96289 -16.03416,10.79153 -7.21871,-3.49515 3.36133,-8.10743 4.88878,-4.93886 7.74842,-6.81245 9.05664,-6.85546 z m 2.1836,12.4121 c 0.91897,0.0189 2.10181,0.15987 3.59765,0.44141 3.32308,9.73818 -12.4803,-0.65287 -3.59765,-0.44141 z m -32.91211,11.1504 c 1.12919,-0.0265 0.95921,1.07978 -1.33399,3.90429 -4.39626,3.7307 -9.10632,7.07609 -13.84375,10.35547 -25.90785,12.36038 9.73701,-14.12329 15.17774,-14.25976 z m 101.785153,12.15625 c 0.623962,0.0521 2.038363,0.7287 4.632813,2.41796 4.796602,8.79342 -7.336385,-2.64991 -4.632813,-2.41796 z m -140.792973,8.22656 c 0.11408,-0.007 0.22902,-6.7e-4 0.34375,0.0215 0.6799,0.13115 1.36281,0.79231 1.97266,2.25 -8.88887,11.41648 -5.85274,-2.0623 -2.31641,-2.27148 z m 170.328129,44.82422 c 0.372473,-0.0559 1.319499,0.408 3.138672,1.73828 4.406226,8.49819 -4.75321,-1.49707 -3.138672,-1.73828 z"
           transform="scale(0.26458333)" />
        <path
           inkscape:connector-curvature="0"
           id="path1173-9"
           d="m 36.105355,146.23612 c -1.91615,1.52914 -4.46955,2.12598 -6.88436,1.86683 -1.438423,-1.31609 -0.974548,-3.52054 -0.22173,-5.07193 0.4088,-1.41997 1.53817,-2.51388 2.98014,-2.84733 2.07472,-0.68565 4.85988,0.10126 5.55595,2.35701 0.45494,1.36321 -0.0376,3.09647 -1.43,3.69542 z"
           style="fill:#fe6e27;fill-opacity:0.996078;stroke:none;stroke-width:1.41836px;stroke-linecap:butt;stroke-linejoin:miter;stroke-opacity:1" />
      </g>
      <g
         id="g7640"
         style="opacity:0.819936"
         transform="translate(-133.97403,22.0667)">
        <path
           id="rect7531-4"
           style="opacity:0.845659;fill:url(#linearGradient7634);fill-opacity:1;stroke:none;stroke-width:0.566852;stroke-opacity:1"
           d="m 319.92754,-18.351987 c -3.74537,4.143586 -10.17526,13.1002648 -13.98148,17.91973076 -2.24064,1.56468004 -5.90846,5.55095004 -8.47407,8.34017704 -1.4601,0.891232 -4.15006,2.9676462 -4.95266,3.6601762 -0.38399,0.107723 -0.7494,0.24368 -1.10091,0.400563 0.94272,-1.561844 2.05417,-3.6470012 2.87761,-5.2304552 1.93538,-3.120513 4.71583,-8.342644 6.32736,-11.119569 0.57402,-0.82274 1.35201,-2.040546 1.06151,-1.694187 2.04998,-3.470785 4.51802,-7.3374438 6.01217,-10.7723948 -1.88887,3.098453 -9.00802,14.9913358 -6.70281,11.4244888 -0.0471,0.08125 -0.0772,0.135171 -0.12019,0.209845 -1.45206,2.057465 -4.43492,7.295596 -6.41645,10.869182 -1.37084,2.067315 -3.22552,5.0246932 -4.14296,6.8998042 -2.59078,1.594552 -4.49252,4.259565 -7.45882,5.479129 -3.56549,-1.595652 -4.18437,0.62821 -6.15178,2.923287 -9.99101,4.535106 -17.66872,12.87755 -27.81877,17.132594 -6.87053,2.363546 -12.37715,7.233407 -18.17983,11.420778 -3.07006,1.902672 -5.46585,4.493353 -8.6371,6.919501 -3.71215,3.488299 4.24278,-1.091404 2.13272,0.551882 -2.84932,1.896691 -0.66906,2.375129 0.60927,0.526472 3.45567,-3.309066 7.61425,-5.835543 11.85161,-8.00014 0.25404,1.926326 2.85752,7.880886 6.94034,9.137306 0.32957,-0.791115 -2.0058,-3.122242 -2.46505,-4.095856 -4.33771,-1.294791 -0.79026,-10.132877 1.58655,-5.939364 2.88262,2.015398 5.07649,5.805553 6.87354,7.933332 2.7713,2.39568 0.0315,-2.542417 -0.93303,-4.166091 -0.68992,-2.656773 -4.65271,-2.847016 -4.12669,-4.909547 1.37036,-3.079254 4.21131,-3.525989 4.3491,0.273514 2.27423,3.119121 3.64548,7.460259 5.93993,10.101458 h 2.9e-4 c 4.00433,1.834254 -1.40661,-4.962259 -1.7273,-5.987899 -0.34383,-3.348819 -6.59079,-6.607038 -2.20039,-6.888955 1.95644,-4.695745 4.78652,0.382891 7.71435,1.722167 3.41086,1.137265 5.4466,7.068893 7.45482,5.194766 -1.79752,-4.149519 -5.47653,-6.733492 -9.60182,-8.426399 0.8222,-5.131575 4.82756,0.489327 7.58673,0.510769 2.89,-0.814712 4.40482,8.372541 4.11384,2.48932 1.47767,3.572144 1.74476,0.356605 0.21899,-1.403543 0.0821,-4.402973 -8.70645,-1.542844 -5.87713,-5.416319 1.27202,1.964376 4.03584,1.754976 5.68841,0.159026 1.44122,-1.536282 7.84056,-5.633238 6.79987,-3.198515 -0.41697,1.347598 -1.95436,2.537435 1.40697,1.659358 3.0869,-1.531013 6.64224,-3.331653 8.59114,-6.14036 0.3322,3.05442 0.98886,-0.378432 2.12844,-2.556128 2.38686,0.832104 -0.82241,-7.480914 -2.52843,-4.044466 -3.09676,0.812581 1.5725,-3.300382 3.52085,-1.117752 -0.8179,-2.600846 -7.55393,-1.642406 -2.72458,-4.268589 4.37684,-2.078214 9.23019,-2.410084 14.20816,-2.132438 1.81815,-0.664032 7.14563,-0.10185 5.64444,-0.954729 -4.70054,0.785852 -9.44569,-0.01928 -14.21502,0.771721 -3.58618,0.611237 -0.84432,-0.638134 1.06237,-1.089487 3.9419,-1.439543 23.30231,-5.428231 12.18307,-3.496296 -3.84205,1.11553 -7.97971,1.562459 -11.86588,2.735994 -5.43263,1.348542 6.40531,-3.472055 8.09921,-4.163806 0.003,-0.0022 0.005,-0.0035 0.009,-0.0057 2.52529,-1.083635 4.01932,-1.8153382 7.42199,-3.2407702 2.118,-0.887187 -4.36789,1.273924 -6.59288,2.3948192 -2.15483,0.634054 -12.62569,5.489971 -9.81653,2.959545 -1.53273,0.08388 -5.0148,3.313609 -1.77412,0.138471 10e-4,-2.92e-4 0.002,-4.38e-4 0.003,-0.0012 0.0461,0.02779 0.11175,0.0081 0.19214,-0.04796 2.57626,-0.655027 4.34593,-2.611835 6.3031,-4.4470292 3.49458,-2.539982 8.43538,-7.919252 11.11186,-10.644202 -0.0469,5.85e-4 -0.0972,0.0075 -0.14961,0.01684 1.8967,-2.173162 4.33898,-6.192283 5.30612,-6.755909 2.10059,-3.5801208 6.18512,-7.2537508 7.406,-10.5200068 z M 287.13927,15.27224 c 0.0819,-0.0065 0.17008,0.06523 0.25296,0.267519 -0.84315,1.261409 -0.60787,-0.239143 -0.25296,-0.267519 z m 0.72119,1.359575 c 0.0158,-5.84e-4 0.0322,4.9e-5 0.0491,0.002 0.0559,0.0066 0.11797,0.02737 0.18615,0.06709 -0.66868,1.12845 -0.72389,-0.05104 -0.23525,-0.06909 z m -5.40947,2.137578 c 0.007,-0.0021 0.0136,-0.0021 0.02,2.92e-4 0.0472,0.01779 0.0765,0.164086 0.0668,0.518478 -0.78907,1.684972 -0.30394,-0.453539 -0.0868,-0.518763 z m 2.05706,0.05111 c 0.073,0.01264 0.0464,0.157739 -0.15046,0.51191 -2.87043,2.444294 -0.20134,-0.572811 0.15046,-0.51191 z m -6.44099,2.705446 c 0.23934,-0.0073 0.24851,0.336398 -0.27295,1.316464 l 0.0226,0.527615 c -3.25672,1.359188 -0.46763,-1.822238 0.25039,-1.844079 z m -2.50103,0.49421 c 0.0102,-8.78e-4 0.021,-4.39e-4 0.0325,0.0015 0.0684,0.01072 0.16094,0.06975 0.28236,0.201853 -0.30437,1.060792 -0.63039,-0.177382 -0.31491,-0.203281 z m 5.30212,0.298353 c 0.0678,0.01221 0.0807,0.13002 -0.01,0.419407 -1.60709,1.456846 -0.28425,-0.472506 0.01,-0.419407 z m 1.60996,0.130761 c -0.31721,2.244398 -1.8172,0.678972 0,0 z m 2.22694,0.511911 c 0.0705,7.3e-4 0.16019,0.0057 0.2718,0.0157 0.11907,0.01039 0.263,0.02692 0.43511,0.04996 1.49508,0.859801 -1.76501,-0.07654 -0.70691,-0.06567 z m -10.43949,0.152745 c -3.17085,1.716061 2.81448,1.320004 -0.16246,2.243215 -2.57424,2.698348 -5.73949,6.425333 -9.53758,6.287394 1.31775,2.541812 -2.64072,2.857546 -3.03578,1.388982 1.68777,-3.255519 7.44194,-4.135531 10.3981,-7.30779 -1.81875,-0.65274 -5.3483,3.462982 -7.0003,3.198799 3.02416,-2.04496 6.04569,-4.367953 9.33802,-5.8106 z m 12.6907,1.163149 c -0.47738,10e-6 0.74876,2.21735 1.56314,3.445189 0.44098,-0.42917 0.54466,-1.751572 -0.0934,-2.234362 -0.83511,-0.871105 -1.28298,-1.210833 -1.46978,-1.210827 z m -7.77545,0.143322 c 0.0829,0.0017 0.0765,0.213858 -0.11163,0.795703 -1.621,1.880116 -0.18441,-0.801106 0.11163,-0.795703 z m 5.86342,0.659804 c 0.13113,0.01635 0.4933,0.190545 1.22311,0.660944 -0.38641,0.286387 -1.55822,-0.702813 -1.22311,-0.660944 z m -8.12776,0.502774 c 0.0871,-0.0068 0.2272,0.06806 0.43854,0.269802 0.17236,2.194607 -0.90884,-0.233084 -0.43854,-0.269802 z m 7.96103,0.850235 c -0.62949,1.979463 1.92716,-1.217355 2.38139,1.104904 -2.05807,-0.208436 -1.69919,2.25342 -1.1029,2.486464 -0.84466,1.61473 -3.85266,0.90062 -1.86749,-1.128602 0.18384,2.316541 1.67369,-1.15258 -0.0183,-0.727751 -2.17538,-2.098725 -0.77233,-0.650093 0.60727,-1.735015 z m -2.21267,1.759282 c 0.0205,-5.85e-4 0.0407,4.38e-4 0.0605,0.0031 0.3326,0.04425 0.5626,0.544517 0.22298,1.802965 l 0.005,0.827679 c -1.81268,-1.101945 -0.92328,-2.616999 -0.28864,-2.633785 z m -2.10617,2.333433 c 0.25761,0.005 0.59735,0.0771 1.02354,0.254956 l -0.10735,0.405133 c -1.60752,0.567905 -2.0325,-0.680707 -0.91619,-0.660089 z m 3.47974,0.616406 c 0.90659,2.042359 -2.65942,0.625487 0,0 z m -4.82361,0.447672 c -0.79941,2.341342 -3.43638,1.520592 0,0 z m 3.04091,0.270659 c 0.1254,0.0075 0.1671,0.242602 0.0611,0.834817 l -0.52362,0.322336 c -2.68703,4.045906 -0.14164,-1.193496 0.46252,-1.157153 z m -2.19239,0.712906 c 0.44521,1.675647 -0.72903,0.211813 0,0 z m -3.73013,0.493068 c 0.0153,-4.39e-4 0.0313,5.84e-4 0.048,0.0031 0.099,0.01497 0.22228,0.08513 0.37058,0.23811 -0.71204,1.172006 -0.8941,-0.22621 -0.41855,-0.241252 z m 5.59362,0.08394 c 0.1113,-0.0022 0.28712,0.07414 0.54389,0.288931 -0.51454,0.725321 -0.94141,-0.281737 -0.54389,-0.288931 z m -10.91857,0.08679 c 0.0158,-5.85e-4 0.0319,4.8e-5 0.0488,0.002 0.0559,0.0066 0.11825,0.02738 0.18643,0.06709 -0.66865,1.12846 -0.72388,-0.051 -0.23525,-0.06909 z m 4.31512,0.542745 c 0.15236,-0.01469 0.0289,0.210575 -0.72175,0.90962 -1.85977,0.732348 0.33239,-0.872094 0.72175,-0.90962 z m -15.00643,0.246105 c 0.6827,0.01459 0.81129,0.494655 -0.51591,1.757285 -0.71842,0.633951 -1.53169,1.17771 -2.42622,1.530308 -2.74272,-1.098498 1.44016,-3.319669 2.94213,-3.287593 z m 7.42027,0.03341 c 0.07,0.0028 0.0155,0.116897 -0.25724,0.415124 -2.68334,1.665166 -0.0459,-0.425683 0.25724,-0.415124 z m 9.00684,0.07509 c -0.66207,0.845116 -1.12971,-0.02779 0,0 z m 1.56913,1.00869 c 0.0207,-0.0013 0.0415,8.3e-5 0.0625,0.0046 0.15518,0.03315 0.31783,0.230656 0.46252,0.692922 -1.616,2.043462 -1.16613,-0.657164 -0.52505,-0.69749 z m -10.4275,0.344891 c -0.65321,0.721884 -2.44379,0.454519 0,0 z m -2.72372,0.0237 c 0.12859,-0.01188 0.11985,0.130146 -0.16788,0.546742 -2.50136,1.504188 -0.29141,-0.504168 0.16788,-0.546742 z m 11.95239,0.916186 c -0.66203,0.845088 -1.12974,-0.02779 0,0 z m -22.3228,0.567869 c 0.52886,0.03199 0.60008,0.485116 -0.5042,1.58741 -0.35205,0.839888 -4.35612,1.524207 -2.50702,0.256097 0.48752,-1.038536 2.23829,-1.890418 3.01122,-1.843507 z m 9.85307,1.868346 c 0.11613,-0.0033 0.23595,-0.0022 0.35346,0.0034 0.56405,0.02718 1.07246,0.157229 0.83853,0.391998 0.0953,0.60337 -0.65787,0.892339 -0.94303,0.321764 -1.68896,-0.453477 -1.06187,-0.694343 -0.24896,-0.717189 z m -14.88424,0.286933 c 0.41232,0.0072 0.74977,0.231326 0.88935,0.808265 -0.5579,0.372652 -1.19204,0.600391 -1.80411,0.863083 -3.47539,1.604839 -0.70277,-1.699846 0.91476,-1.671348 z m 6.47669,0.855659 c 0.0385,2.93e-4 0.0781,0.0024 0.11848,0.0063 0.18456,0.01779 0.38761,0.07418 0.6047,0.18415 -2.19816,1.414332 -1.91747,-0.20118 -0.72318,-0.190431 z m -10.40695,1.103191 c 0.26808,0.01928 0.35262,0.220821 0.10621,0.704627 -0.5749,0.483624 -1.25889,0.797787 -1.94315,1.08749 -3.93351,1.45453 0.67528,-1.876105 1.83694,-1.792117 z m 5.64615,0.608697 c 0.0625,-0.001 0.12728,-4.39e-4 0.19414,0.0023 -1.96129,1.777416 -2.1306,0.03003 -0.19414,-0.0023 z m -5.48513,1.911172 c 0.0265,-0.0016 0.0533,-0.0017 0.0805,0 0.12427,0.0077 0.25531,0.05097 0.38857,0.14361 l -0.18501,0.298924 c -1.54697,1.16251 -1.10414,-0.392866 -0.28408,-0.442534 z m -5.55793,0.398566 c 0.48871,-0.01608 -0.50423,1.71589 -1.81524,2.187255 -2.34385,1.577491 -1.05522,-0.510916 0.49136,-1.185133 0.71463,-0.721956 1.13265,-0.995835 1.32388,-1.002122 z m 0.3192,1.814384 c 0.13433,0.0028 0.30724,0.02337 0.5259,0.06452 0.48576,1.423513 -1.82435,-0.09544 -0.5259,-0.06452 z m -4.81105,1.62995 c 0.16507,-0.0039 0.14022,0.157841 -0.195,0.570724 -0.64264,0.545349 -1.33115,1.034373 -2.02366,1.513748 -3.78717,1.806824 1.42334,-2.064523 2.21866,-2.084472 z m 14.87882,1.776984 c 0.0912,0.0076 0.29796,0.106521 0.67722,0.353454 0.70116,1.285411 -1.07243,-0.38736 -0.67722,-0.353454 z m -20.58093,1.202548 c 0.0167,-0.001 0.0335,-9.8e-5 0.0503,0.0031 0.0994,0.01917 0.19922,0.115819 0.28836,0.328902 -1.29936,1.668846 -0.85554,-0.301464 -0.33861,-0.332041 z m 24.89834,6.552343 c 0.0544,-0.0082 0.19288,0.05964 0.4588,0.2541 0.6441,1.242253 -0.69481,-0.21884 -0.4588,-0.2541 z" />
        <path
           inkscape:connector-curvature="0"
           id="path1173-91"
           d="m 282.9812,18.051119 c -1.05864,0.844829 -2.46936,1.174574 -3.80351,1.031398 -0.79471,-0.727122 -0.53842,-1.94505 -0.1225,-2.802172 0.22585,-0.784513 0.84982,-1.388884 1.64648,-1.57311 1.14626,-0.378812 2.68502,0.05595 3.06959,1.302215 0.25135,0.753155 -0.0208,1.710757 -0.79006,2.041669 z"
           style="fill:#ff5500;fill-opacity:0.847059;stroke:none;stroke-width:0.783624px;stroke-linecap:butt;stroke-linejoin:miter;stroke-opacity:1" />
      </g>
    </g>
  </g>
</svg>
