<?xml version="1.0" encoding="UTF-8" standalone="no"?>
<svg
   xmlns:dc="http://purl.org/dc/elements/1.1/"
   xmlns:cc="http://creativecommons.org/ns#"
   xmlns:rdf="http://www.w3.org/1999/02/22-rdf-syntax-ns#"
   xmlns:svg="http://www.w3.org/2000/svg"
   xmlns="http://www.w3.org/2000/svg"
   xmlns:xlink="http://www.w3.org/1999/xlink"
   xmlns:sodipodi="http://sodipodi.sourceforge.net/DTD/sodipodi-0.dtd"
   xmlns:inkscape="http://www.inkscape.org/namespaces/inkscape"
   width="219mm"
   height="219mm"
   viewBox="0 0 219 219"
   version="1.1"
   id="svg902"
   inkscape:version="1.0.2 (e86c8708, 2021-01-15)"
   sodipodi:docname="krillV5.svg">
  <defs
     id="defs896">
    <linearGradient
       inkscape:collect="always"
       xlink:href="#linearGradient7537"
       id="linearGradient7634"
       gradientUnits="userSpaceOnUse"
       gradientTransform="matrix(0.47374747,-0.28426102,0.28426102,0.47374747,240.08517,16.541214)"
       x1="46.839088"
       y1="45.882805"
       x2="47.345665"
       y2="75.935432" />
    <linearGradient
       inkscape:collect="always"
       id="linearGradient7537">
      <stop
         style="stop-color:#ff5500;stop-opacity:1;"
         offset="0"
         id="stop7533" />
      <stop
         style="stop-color:#f5f5f5;stop-opacity:0.98387098"
         offset="1"
         id="stop7535" />
    </linearGradient>
    <linearGradient
       inkscape:collect="always"
       xlink:href="#linearGradient7537"
       id="linearGradient1551"
       x1="131.77049"
       y1="188.64937"
       x2="-58.237183"
       y2="82.682594"
       gradientUnits="userSpaceOnUse" />
  </defs>
  <sodipodi:namedview
     id="base"
     pagecolor="#ffffff"
     bordercolor="#666666"
     borderopacity="1.0"
     inkscape:pageopacity="0.0"
     inkscape:pageshadow="2"
     inkscape:zoom="0.77081058"
     inkscape:cx="393.44137"
     inkscape:cy="380.48549"
     inkscape:document-units="mm"
     inkscape:current-layer="layer1"
     inkscape:document-rotation="0"
     showgrid="false"
     inkscape:window-width="1919"
     inkscape:window-height="983"
     inkscape:window-x="1441"
     inkscape:window-y="23"
     inkscape:window-maximized="0" />
  <metadata
     id="metadata899">
    <rdf:RDF>
      <cc:Work
         rdf:about="">
        <dc:format>image/svg+xml</dc:format>
        <dc:type
           rdf:resource="http://purl.org/dc/dcmitype/StillImage" />
        <dc:title></dc:title>
      </cc:Work>
    </rdf:RDF>
  </metadata>
  <g
     inkscape:label="Layer 1"
     inkscape:groupmode="layer"
     id="layer1">
    <g
       aria-label="KRILL"
       transform="matrix(0.44954552,-0.00338391,0.00338391,0.44954552,-314.13335,-20.711557)"
       style="font-style:normal;font-weight:normal;font-size:40px;line-height:1.25;font-family:sans-serif;letter-spacing:0px;word-spacing:0px;fill:#f5f5f5;fill-opacity:1;stroke:#f5f5f5;stroke-opacity:1"
       id="flowRoot12058">
      <path
         d="m 858.78125,133.66992 h 6.3125 v 19.71875 l 20.9375,-19.71875 h 8.125 L 871,155.41992 895.8125,180.32617 H 887.5 l -22.40625,-22.46875 v 22.46875 h -6.3125 z"
         style="font-style:normal;font-variant:normal;font-weight:normal;font-stretch:normal;font-size:64px;font-family:Damascus;-inkscape-font-specification:Damascus;fill:#f5f5f5;fill-opacity:1;stroke:#f5f5f5;stroke-opacity:1"
         id="path821"
         inkscape:connector-curvature="0" />
      <path
         d="m 922.90625,158.45117 q 2.03125,0.6875 3.9375,2.9375 1.9375,2.25 3.875,6.1875 l 6.40625,12.75 h -6.78125 L 924.375,168.35742 q -2.3125,-4.6875 -4.5,-6.21875 -2.15625,-1.53125 -5.90625,-1.53125 h -6.875 v 19.71875 h -6.3125 v -46.65625 h 14.25 q 8,0 11.9375,3.34375 3.9375,3.34375 3.9375,10.09375 0,4.40625 -2.0625,7.3125 -2.03125,2.90625 -5.9375,4.03125 z m -15.8125,-19.59375 v 16.5625 h 7.9375 q 4.5625,0 6.875,-2.09375 2.34375,-2.125 2.34375,-6.21875 0,-4.09375 -2.34375,-6.15625 -2.3125,-2.09375 -6.875,-2.09375 z"
         style="font-style:normal;font-variant:normal;font-weight:normal;font-stretch:normal;font-size:64px;font-family:Damascus;-inkscape-font-specification:Damascus;fill:#f5f5f5;fill-opacity:1;stroke:#f5f5f5;stroke-opacity:1"
         id="path823"
         inkscape:connector-curvature="0" />
      <path
         d="m 945.28125,133.66992 h 6.3125 v 46.65625 h -6.3125 z"
         style="font-style:normal;font-variant:normal;font-weight:normal;font-stretch:normal;font-size:64px;font-family:Damascus;-inkscape-font-specification:Damascus;fill:#f5f5f5;fill-opacity:1;stroke:#f5f5f5;stroke-opacity:1"
         id="path825"
         inkscape:connector-curvature="0" />
      <path
         d="m 964.15625,133.66992 h 6.3125 v 41.34375 h 22.71875 v 5.3125 h -29.03125 z"
         style="font-style:normal;font-variant:normal;font-weight:normal;font-stretch:normal;font-size:64px;font-family:Damascus;-inkscape-font-specification:Damascus;fill:#f5f5f5;fill-opacity:1;stroke:#f5f5f5;stroke-opacity:1"
         id="path827"
         inkscape:connector-curvature="0" />
      <path
         d="m 999.78125,133.66992 h 6.31245 v 41.34375 h 22.7188 v 5.3125 h -29.03125 z"
         style="font-style:normal;font-variant:normal;font-weight:normal;font-stretch:normal;font-size:64px;font-family:Damascus;-inkscape-font-specification:Damascus;fill:#f5f5f5;fill-opacity:1;stroke:#f5f5f5;stroke-opacity:1"
         id="path829"
         inkscape:connector-curvature="0" />
    </g>
    <g
       id="g7640"
       style="opacity:0.819936"
       transform="matrix(1.6012888,0.09205687,-0.09384075,1.605207,-309.99124,25.542336)">
      <path
         id="rect7531-4"
         style="opacity:0.845659;fill:url(#linearGradient7634);fill-opacity:1;stroke:none;stroke-width:0.566852;stroke-opacity:1"
         d="m 319.92754,-18.351987 c -3.74537,4.143586 -10.17526,13.1002648 -13.98148,17.91973076 -2.24064,1.56468004 -5.90846,5.55095004 -8.47407,8.34017704 -1.4601,0.891232 -4.15006,2.9676462 -4.95266,3.6601762 -0.38399,0.107723 -0.7494,0.24368 -1.10091,0.400563 0.94272,-1.561844 2.05417,-3.6470012 2.87761,-5.2304552 1.93538,-3.120513 4.71583,-8.342644 6.32736,-11.119569 0.57402,-0.82274 1.35201,-2.040546 1.06151,-1.694187 2.04998,-3.470785 4.51802,-7.3374438 6.01217,-10.7723948 -1.88887,3.098453 -9.00802,14.9913358 -6.70281,11.4244888 -0.0471,0.08125 -0.0772,0.135171 -0.12019,0.209845 -1.45206,2.057465 -4.43492,7.295596 -6.41645,10.869182 -1.37084,2.067315 -3.22552,5.0246932 -4.14296,6.8998042 -2.59078,1.594552 -4.49252,4.259565 -7.45882,5.479129 -3.56549,-1.595652 -4.18437,0.62821 -6.15178,2.923287 -9.99101,4.535106 -17.66872,12.87755 -27.81877,17.132594 -6.87053,2.363546 -12.37715,7.233407 -18.17983,11.420778 -3.07006,1.902672 -5.46585,4.493353 -8.6371,6.919501 -3.71215,3.488299 4.24278,-1.091404 2.13272,0.551882 -2.84932,1.896691 -0.66906,2.375129 0.60927,0.526472 3.45567,-3.309066 7.61425,-5.835543 11.85161,-8.00014 0.25404,1.926326 2.85752,7.880886 6.94034,9.137306 0.32957,-0.791115 -2.0058,-3.122242 -2.46505,-4.095856 -4.33771,-1.294791 -0.79026,-10.132877 1.58655,-5.939364 2.88262,2.015398 5.07649,5.805553 6.87354,7.933332 2.7713,2.39568 0.0315,-2.542417 -0.93303,-4.166091 -0.68992,-2.656773 -4.65271,-2.847016 -4.12669,-4.909547 1.37036,-3.079254 4.21131,-3.525989 4.3491,0.273514 2.27423,3.119121 3.64548,7.460259 5.93993,10.101458 h 2.9e-4 c 4.00433,1.834254 -1.40661,-4.962259 -1.7273,-5.987899 -0.34383,-3.348819 -6.59079,-6.607038 -2.20039,-6.888955 1.95644,-4.695745 4.78652,0.382891 7.71435,1.722167 3.41086,1.137265 5.4466,7.068893 7.45482,5.194766 -1.79752,-4.149519 -5.47653,-6.733492 -9.60182,-8.426399 0.8222,-5.131575 4.82756,0.489327 7.58673,0.510769 2.89,-0.814712 4.40482,8.372541 4.11384,2.48932 1.47767,3.572144 1.74476,0.356605 0.21899,-1.403543 0.0821,-4.402973 -8.70645,-1.542844 -5.87713,-5.416319 1.27202,1.964376 4.03584,1.754976 5.68841,0.159026 1.44122,-1.536282 7.84056,-5.633238 6.79987,-3.198515 -0.41697,1.347598 -1.95436,2.537435 1.40697,1.659358 3.0869,-1.531013 6.64224,-3.331653 8.59114,-6.14036 0.3322,3.05442 0.98886,-0.378432 2.12844,-2.556128 2.38686,0.832104 -0.82241,-7.480914 -2.52843,-4.044466 -3.09676,0.812581 1.5725,-3.300382 3.52085,-1.117752 -0.8179,-2.600846 -7.55393,-1.642406 -2.72458,-4.268589 4.37684,-2.078214 9.23019,-2.410084 14.20816,-2.132438 1.81815,-0.664032 7.14563,-0.10185 5.64444,-0.954729 -4.70054,0.785852 -9.44569,-0.01928 -14.21502,0.771721 -3.58618,0.611237 -0.84432,-0.638134 1.06237,-1.089487 3.9419,-1.439543 23.30231,-5.428231 12.18307,-3.496296 -3.84205,1.11553 -7.97971,1.562459 -11.86588,2.735994 -5.43263,1.348542 6.40531,-3.472055 8.09921,-4.163806 0.003,-0.0022 0.005,-0.0035 0.009,-0.0057 2.52529,-1.083635 4.01932,-1.8153382 7.42199,-3.2407702 2.118,-0.887187 -4.36789,1.273924 -6.59288,2.3948192 -2.15483,0.634054 -12.62569,5.489971 -9.81653,2.959545 -1.53273,0.08388 -5.0148,3.313609 -1.77412,0.138471 10e-4,-2.92e-4 0.002,-4.38e-4 0.003,-0.0012 0.0461,0.02779 0.11175,0.0081 0.19214,-0.04796 2.57626,-0.655027 4.34593,-2.611835 6.3031,-4.4470292 3.49458,-2.539982 8.43538,-7.919252 11.11186,-10.644202 -0.0469,5.85e-4 -0.0972,0.0075 -0.14961,0.01684 1.8967,-2.173162 4.33898,-6.192283 5.30612,-6.755909 2.10059,-3.5801208 6.18512,-7.2537508 7.406,-10.5200068 z M 287.13927,15.27224 c 0.0819,-0.0065 0.17008,0.06523 0.25296,0.267519 -0.84315,1.261409 -0.60787,-0.239143 -0.25296,-0.267519 z m 0.72119,1.359575 c 0.0158,-5.84e-4 0.0322,4.9e-5 0.0491,0.002 0.0559,0.0066 0.11797,0.02737 0.18615,0.06709 -0.66868,1.12845 -0.72389,-0.05104 -0.23525,-0.06909 z m -5.40947,2.137578 c 0.007,-0.0021 0.0136,-0.0021 0.02,2.92e-4 0.0472,0.01779 0.0765,0.164086 0.0668,0.518478 -0.78907,1.684972 -0.30394,-0.453539 -0.0868,-0.518763 z m 2.05706,0.05111 c 0.073,0.01264 0.0464,0.157739 -0.15046,0.51191 -2.87043,2.444294 -0.20134,-0.572811 0.15046,-0.51191 z m -6.44099,2.705446 c 0.23934,-0.0073 0.24851,0.336398 -0.27295,1.316464 l 0.0226,0.527615 c -3.25672,1.359188 -0.46763,-1.822238 0.25039,-1.844079 z m -2.50103,0.49421 c 0.0102,-8.78e-4 0.021,-4.39e-4 0.0325,0.0015 0.0684,0.01072 0.16094,0.06975 0.28236,0.201853 -0.30437,1.060792 -0.63039,-0.177382 -0.31491,-0.203281 z m 5.30212,0.298353 c 0.0678,0.01221 0.0807,0.13002 -0.01,0.419407 -1.60709,1.456846 -0.28425,-0.472506 0.01,-0.419407 z m 1.60996,0.130761 c -0.31721,2.244398 -1.8172,0.678972 0,0 z m 2.22694,0.511911 c 0.0705,7.3e-4 0.16019,0.0057 0.2718,0.0157 0.11907,0.01039 0.263,0.02692 0.43511,0.04996 1.49508,0.859801 -1.76501,-0.07654 -0.70691,-0.06567 z m -10.43949,0.152745 c -3.17085,1.716061 2.81448,1.320004 -0.16246,2.243215 -2.57424,2.698348 -5.73949,6.425333 -9.53758,6.287394 1.31775,2.541812 -2.64072,2.857546 -3.03578,1.388982 1.68777,-3.255519 7.44194,-4.135531 10.3981,-7.30779 -1.81875,-0.65274 -5.3483,3.462982 -7.0003,3.198799 3.02416,-2.04496 6.04569,-4.367953 9.33802,-5.8106 z m 12.6907,1.163149 c -0.47738,10e-6 0.74876,2.21735 1.56314,3.445189 0.44098,-0.42917 0.54466,-1.751572 -0.0934,-2.234362 -0.83511,-0.871105 -1.28298,-1.210833 -1.46978,-1.210827 z m -7.77545,0.143322 c 0.0829,0.0017 0.0765,0.213858 -0.11163,0.795703 -1.621,1.880116 -0.18441,-0.801106 0.11163,-0.795703 z m 5.86342,0.659804 c 0.13113,0.01635 0.4933,0.190545 1.22311,0.660944 -0.38641,0.286387 -1.55822,-0.702813 -1.22311,-0.660944 z m -8.12776,0.502774 c 0.0871,-0.0068 0.2272,0.06806 0.43854,0.269802 0.17236,2.194607 -0.90884,-0.233084 -0.43854,-0.269802 z m 7.96103,0.850235 c -0.62949,1.979463 1.92716,-1.217355 2.38139,1.104904 -2.05807,-0.208436 -1.69919,2.25342 -1.1029,2.486464 -0.84466,1.61473 -3.85266,0.90062 -1.86749,-1.128602 0.18384,2.316541 1.67369,-1.15258 -0.0183,-0.727751 -2.17538,-2.098725 -0.77233,-0.650093 0.60727,-1.735015 z m -2.21267,1.759282 c 0.0205,-5.85e-4 0.0407,4.38e-4 0.0605,0.0031 0.3326,0.04425 0.5626,0.544517 0.22298,1.802965 l 0.005,0.827679 c -1.81268,-1.101945 -0.92328,-2.616999 -0.28864,-2.633785 z m -2.10617,2.333433 c 0.25761,0.005 0.59735,0.0771 1.02354,0.254956 l -0.10735,0.405133 c -1.60752,0.567905 -2.0325,-0.680707 -0.91619,-0.660089 z m 3.47974,0.616406 c 0.90659,2.042359 -2.65942,0.625487 0,0 z m -4.82361,0.447672 c -0.79941,2.341342 -3.43638,1.520592 0,0 z m 3.04091,0.270659 c 0.1254,0.0075 0.1671,0.242602 0.0611,0.834817 l -0.52362,0.322336 c -2.68703,4.045906 -0.14164,-1.193496 0.46252,-1.157153 z m -2.19239,0.712906 c 0.44521,1.675647 -0.72903,0.211813 0,0 z m -3.73013,0.493068 c 0.0153,-4.39e-4 0.0313,5.84e-4 0.048,0.0031 0.099,0.01497 0.22228,0.08513 0.37058,0.23811 -0.71204,1.172006 -0.8941,-0.22621 -0.41855,-0.241252 z m 5.59362,0.08394 c 0.1113,-0.0022 0.28712,0.07414 0.54389,0.288931 -0.51454,0.725321 -0.94141,-0.281737 -0.54389,-0.288931 z m -10.91857,0.08679 c 0.0158,-5.85e-4 0.0319,4.8e-5 0.0488,0.002 0.0559,0.0066 0.11825,0.02738 0.18643,0.06709 -0.66865,1.12846 -0.72388,-0.051 -0.23525,-0.06909 z m 4.31512,0.542745 c 0.15236,-0.01469 0.0289,0.210575 -0.72175,0.90962 -1.85977,0.732348 0.33239,-0.872094 0.72175,-0.90962 z m -15.00643,0.246105 c 0.6827,0.01459 0.81129,0.494655 -0.51591,1.757285 -0.71842,0.633951 -1.53169,1.17771 -2.42622,1.530308 -2.74272,-1.098498 1.44016,-3.319669 2.94213,-3.287593 z m 7.42027,0.03341 c 0.07,0.0028 0.0155,0.116897 -0.25724,0.415124 -2.68334,1.665166 -0.0459,-0.425683 0.25724,-0.415124 z m 9.00684,0.07509 c -0.66207,0.845116 -1.12971,-0.02779 0,0 z m 1.56913,1.00869 c 0.0207,-0.0013 0.0415,8.3e-5 0.0625,0.0046 0.15518,0.03315 0.31783,0.230656 0.46252,0.692922 -1.616,2.043462 -1.16613,-0.657164 -0.52505,-0.69749 z m -10.4275,0.344891 c -0.65321,0.721884 -2.44379,0.454519 0,0 z m -2.72372,0.0237 c 0.12859,-0.01188 0.11985,0.130146 -0.16788,0.546742 -2.50136,1.504188 -0.29141,-0.504168 0.16788,-0.546742 z m 11.95239,0.916186 c -0.66203,0.845088 -1.12974,-0.02779 0,0 z m -22.3228,0.567869 c 0.52886,0.03199 0.60008,0.485116 -0.5042,1.58741 -0.35205,0.839888 -4.35612,1.524207 -2.50702,0.256097 0.48752,-1.038536 2.23829,-1.890418 3.01122,-1.843507 z m 9.85307,1.868346 c 0.11613,-0.0033 0.23595,-0.0022 0.35346,0.0034 0.56405,0.02718 1.07246,0.157229 0.83853,0.391998 0.0953,0.60337 -0.65787,0.892339 -0.94303,0.321764 -1.68896,-0.453477 -1.06187,-0.694343 -0.24896,-0.717189 z m -14.88424,0.286933 c 0.41232,0.0072 0.74977,0.231326 0.88935,0.808265 -0.5579,0.372652 -1.19204,0.600391 -1.80411,0.863083 -3.47539,1.604839 -0.70277,-1.699846 0.91476,-1.671348 z m 6.47669,0.855659 c 0.0385,2.93e-4 0.0781,0.0024 0.11848,0.0063 0.18456,0.01779 0.38761,0.07418 0.6047,0.18415 -2.19816,1.414332 -1.91747,-0.20118 -0.72318,-0.190431 z m -10.40695,1.103191 c 0.26808,0.01928 0.35262,0.220821 0.10621,0.704627 -0.5749,0.483624 -1.25889,0.797787 -1.94315,1.08749 -3.93351,1.45453 0.67528,-1.876105 1.83694,-1.792117 z m 5.64615,0.608697 c 0.0625,-0.001 0.12728,-4.39e-4 0.19414,0.0023 -1.96129,1.777416 -2.1306,0.03003 -0.19414,-0.0023 z m -5.48513,1.911172 c 0.0265,-0.0016 0.0533,-0.0017 0.0805,0 0.12427,0.0077 0.25531,0.05097 0.38857,0.14361 l -0.18501,0.298924 c -1.54697,1.16251 -1.10414,-0.392866 -0.28408,-0.442534 z m -5.55793,0.398566 c 0.48871,-0.01608 -0.50423,1.71589 -1.81524,2.187255 -2.34385,1.577491 -1.05522,-0.510916 0.49136,-1.185133 0.71463,-0.721956 1.13265,-0.995835 1.32388,-1.002122 z m 0.3192,1.814384 c 0.13433,0.0028 0.30724,0.02337 0.5259,0.06452 0.48576,1.423513 -1.82435,-0.09544 -0.5259,-0.06452 z m -4.81105,1.62995 c 0.16507,-0.0039 0.14022,0.157841 -0.195,0.570724 -0.64264,0.545349 -1.33115,1.034373 -2.02366,1.513748 -3.78717,1.806824 1.42334,-2.064523 2.21866,-2.084472 z m 14.87882,1.776984 c 0.0912,0.0076 0.29796,0.106521 0.67722,0.353454 0.70116,1.285411 -1.07243,-0.38736 -0.67722,-0.353454 z m -20.58093,1.202548 c 0.0167,-0.001 0.0335,-9.8e-5 0.0503,0.0031 0.0994,0.01917 0.19922,0.115819 0.28836,0.328902 -1.29936,1.668846 -0.85554,-0.301464 -0.33861,-0.332041 z m 24.89834,6.552343 c 0.0544,-0.0082 0.19288,0.05964 0.4588,0.2541 0.6441,1.242253 -0.69481,-0.21884 -0.4588,-0.2541 z" />
      <path
         inkscape:connector-curvature="0"
         id="path1173-91"
         d="m 282.9812,18.051119 c -1.05864,0.844829 -2.46936,1.174574 -3.80351,1.031398 -0.79471,-0.727122 -0.53842,-1.94505 -0.1225,-2.802172 0.22585,-0.784513 0.84982,-1.388884 1.64648,-1.57311 1.14626,-0.378812 2.68502,0.05595 3.06959,1.302215 0.25135,0.753155 -0.0208,1.710757 -0.79006,2.041669 z"
         style="fill:#ff5500;fill-opacity:0.847059;stroke:none;stroke-width:0.783624px;stroke-linecap:butt;stroke-linejoin:miter;stroke-opacity:1" />
    </g>
    <path
       sodipodi:type="star"
       style="opacity:0.819936;fill:none;fill-opacity:0.847059;stroke:url(#linearGradient1551);stroke-width:2.75948;stroke-miterlimit:4;stroke-dasharray:none;stroke-opacity:1"
       id="path1517"
       sodipodi:sides="3"
       sodipodi:cx="65.767853"
       sodipodi:cy="149.67857"
       sodipodi:r1="180.71214"
       sodipodi:r2="90.356071"
       sodipodi:arg1="1.5498789"
       sodipodi:arg2="2.5970764"
       inkscape:flatsided="false"
       inkscape:rounded="0"
       inkscape:randomized="0"
       d="M 69.54761,330.35118 -11.520741,196.48341 -92.589096,62.615634 63.877969,59.342269 220.34504,56.068903 144.94633,193.21004 Z"
       inkscape:transform-center-x="0.036112243"
       inkscape:transform-center-y="31.729737"
       transform="matrix(0.32829795,-0.61626807,-0.5979637,-0.33834755,177.49533,171.89842)" />
  </g>
</svg>
