<?xml version="1.0" encoding="UTF-8" standalone="no"?>
<svg
   xmlns:dc="http://purl.org/dc/elements/1.1/"
   xmlns:cc="http://creativecommons.org/ns#"
   xmlns:rdf="http://www.w3.org/1999/02/22-rdf-syntax-ns#"
   xmlns:svg="http://www.w3.org/2000/svg"
   xmlns="http://www.w3.org/2000/svg"
   xmlns:sodipodi="http://sodipodi.sourceforge.net/DTD/sodipodi-0.dtd"
   xmlns:inkscape="http://www.inkscape.org/namespaces/inkscape"
   width="210mm"
   height="210mm"
   viewBox="0 0 210 210"
   version="1.1"
   id="svg4723"
   inkscape:version="1.0.2 (e86c8708, 2021-01-15)"
   sodipodi:docname="thumbnailInfo.svg">
  <defs
     id="defs4717" />
  <sodipodi:namedview
     id="base"
     pagecolor="#ffffff"
     bordercolor="#666666"
     borderopacity="1.0"
     inkscape:pageopacity="0.0"
     inkscape:pageshadow="2"
     inkscape:zoom="0.43459892"
     inkscape:cx="313.28331"
     inkscape:cy="437.46049"
     inkscape:document-units="mm"
     inkscape:current-layer="text1092"
     inkscape:document-rotation="0"
     showgrid="false"
     inkscape:window-width="1440"
     inkscape:window-height="855"
     inkscape:window-x="0"
     inkscape:window-y="23"
     inkscape:window-maximized="0" />
  <metadata
     id="metadata4720">
    <rdf:RDF>
      <cc:Work
         rdf:about="">
        <dc:format>image/svg+xml</dc:format>
        <dc:type
           rdf:resource="http://purl.org/dc/dcmitype/StillImage" />
        <dc:title></dc:title>
      </cc:Work>
    </rdf:RDF>
  </metadata>
  <g
     inkscape:label="Layer 1"
     inkscape:groupmode="layer"
     id="layer1">
    <circle
       style="fill:none;fill-opacity:1;stroke:#f26b01;stroke-width:14.6541;stroke-miterlimit:4;stroke-dasharray:none;stroke-opacity:1"
       id="path1090"
       cx="105.30838"
       cy="105.02491"
       r="97.172951" />
    <g
       aria-label="i"
       transform="matrix(4.7880931,0,0,4.7880931,-3685.3213,-638.498)"
       id="text1092"
       style="font-style:normal;font-weight:normal;font-size:25.4px;line-height:1.25;font-family:sans-serif;white-space:pre;shape-inside:url(#rect1094);fill:#476eac;fill-opacity:1;stroke:#476eac;stroke-width:1.87966;stroke-miterlimit:4;stroke-dasharray:none;stroke-opacity:1">
      <path
         d="m 792.82486,154.10909 v 9.78545 c 0,0.67799 -0.16123,1.19062 -0.48369,1.53789 -0.32246,0.34727 -0.39078,0.5209 -0.88687,0.5209 -0.49609,0 -0.56629,-0.17777 -0.88048,-0.5333 -0.30593,-0.35554 -0.45889,-0.86404 -0.45889,-1.52549 v -9.68623 c 0,-0.66973 0.15296,-1.17409 0.45889,-1.51309 0.31419,-0.339 0.38439,-0.5085 0.88048,-0.5085 0.49609,0 0.56441,0.1695 0.88687,0.5085 0.32246,0.339 0.48369,0.81029 0.48369,1.41387 z m -1.33336,-5.26574 c -0.47129,0 -0.87643,-0.1447 -1.21543,-0.43409 -0.33073,-0.28939 -0.49609,-0.69866 -0.49609,-1.22783 0,-0.47955 0.1695,-0.87229 0.5085,-1.17822 0.34726,-0.31419 0.74827,-0.47129 1.20302,-0.47129 0.43822,0 0.82683,0.14056 1.16582,0.42168 0.339,0.28112 0.5085,0.6904 0.5085,1.22783 0,0.5209 -0.16536,0.93018 -0.49609,1.22783 -0.33073,0.28939 -0.72348,0.43409 -1.17823,0.43409 z"
         style="font-style:normal;font-variant:normal;font-weight:normal;font-stretch:normal;font-size:25.4px;font-family:'Arial Rounded MT Bold';-inkscape-font-specification:'Arial Rounded MT Bold, ';fill:#f26b01;fill-opacity:1;stroke:#f26b01;stroke-width:1.87966;stroke-miterlimit:4;stroke-dasharray:none;stroke-opacity:1"
         id="path1103"
         sodipodi:nodetypes="sssscsscsssscscssscs" />
    </g>
  </g>
</svg>
