<?xml version="1.0" encoding="UTF-8" standalone="no"?>
<svg
   xmlns:dc="http://purl.org/dc/elements/1.1/"
   xmlns:cc="http://creativecommons.org/ns#"
   xmlns:rdf="http://www.w3.org/1999/02/22-rdf-syntax-ns#"
   xmlns:svg="http://www.w3.org/2000/svg"
   xmlns="http://www.w3.org/2000/svg"
   xmlns:sodipodi="http://sodipodi.sourceforge.net/DTD/sodipodi-0.dtd"
   xmlns:inkscape="http://www.inkscape.org/namespaces/inkscape"
   width="210mm"
   height="210mm"
   viewBox="0 0 210 210"
   version="1.1"
   id="svg3170"
   inkscape:version="1.0.2 (e86c8708, 2021-01-15)"
   sodipodi:docname="tuDresden.svg">
  <defs
     id="defs3164" />
  <sodipodi:namedview
     id="base"
     pagecolor="#ffffff"
     bordercolor="#666666"
     borderopacity="1.0"
     inkscape:pageopacity="0.0"
     inkscape:pageshadow="2"
     inkscape:zoom="0.39711291"
     inkscape:cx="306.65922"
     inkscape:cy="579.39811"
     inkscape:document-units="mm"
     inkscape:current-layer="layer1"
     inkscape:document-rotation="0"
     showgrid="false"
     inkscape:window-width="1252"
     inkscape:window-height="855"
     inkscape:window-x="0"
     inkscape:window-y="23"
     inkscape:window-maximized="0" />
  <metadata
     id="metadata3167">
    <rdf:RDF>
      <cc:Work
         rdf:about="">
        <dc:format>image/svg+xml</dc:format>
        <dc:type
           rdf:resource="http://purl.org/dc/dcmitype/StillImage" />
        <dc:title />
      </cc:Work>
    </rdf:RDF>
  </metadata>
  <g
     inkscape:label="Layer 1"
     inkscape:groupmode="layer"
     id="layer1">
    <circle
       style="fill:#8f8f8f;fill-opacity:1;stroke-width:0.4459"
       id="path3150"
       cx="-5.638948"
       cy="-6.2191992"
       r="0"
       mask="none" />
    <circle
       style="fill:#8f8f8f;fill-opacity:1;stroke-width:0.4459"
       id="path3150-6"
       cx="-5.638948"
       cy="-6.2191992"
       r="0"
       mask="none" />
    <ellipse
       style="fill:#8f8f8f;fill-opacity:1;stroke-width:0.4459"
       id="path3150-5"
       cx="-5.638948"
       cy="-6.2191992"
       mask="none"
       rx="1035000"
       ry="0" />
    <path
       id="path3773"
       style="fill:#ffffff;stroke-width:1.88709;fill-opacity:1"
       d="M 395.63086,7.6425781 A 391.1811,391.1811 0 0 0 5.2148438,398.82422 391.1811,391.1811 0 0 0 396.39453,790.00391 391.1811,391.1811 0 0 0 787.57617,398.82422 391.1811,391.1811 0 0 0 396.39453,7.6425781 a 391.1811,391.1811 0 0 0 -0.76367,0 z M 274.25781,101.67773 H 512.71484 L 695.55273,285.10547 V 522.97266 L 512.71484,706.40039 H 274.25781 L 90.828125,522.97266 V 285.10547 Z m 7.09961,18.3418 -172.18554,172.1875 v 223.66406 l 172.18554,172.1875 H 505.02344 L 677.20898,515.87109 V 292.20703 L 505.02344,120.01953 Z m 7.10156,18.34375 h 209.4629 l 160.94531,160.94336 v 22.48438 H 476.0293 V 514.0957 H 310.94336 V 321.79102 H 127.51367 v -22.48438 z m 7.69141,18.3418 -146.74414,146.74414 H 329.28516 V 495.75391 H 457.68555 V 303.44922 h 179.8789 L 490.82227,156.70508 Z M 127.51367,340.13477 H 292.59961 V 532.43945 H 494.37305 V 340.13477 H 658.86719 V 508.77148 L 497.92188,669.71484 H 288.45898 L 127.51367,508.77148 Z m 18.34375,18.34375 v 143.1914 l 150.29297,149.71094 h 194.67188 l 149.70117,-149.71094 0.59179,-143.1914 H 512.71484 V 550.7832 H 274.25781 V 358.47852 Z"
       transform="scale(0.26458333)" />
  </g>
</svg>
